<svg width="45" height="45" viewBox="0 0 45 45" fill="none" xmlns="http://www.w3.org/2000/svg">
<path fill-rule="evenodd" clip-rule="evenodd" d="M22.5 39.375C24.7161 39.375 26.9104 38.9385 28.9578 38.0905C31.0052 37.2424 32.8654 35.9994 34.4324 34.4324C35.9994 32.8654 37.2424 31.0052 38.0905 28.9578C38.9385 26.9104 39.375 24.7161 39.375 22.5C39.375 20.2839 38.9385 18.0896 38.0905 16.0422C37.2424 13.9948 35.9994 12.1346 34.4324 10.5676C32.8654 9.00058 31.0052 7.75758 28.9578 6.90953C26.9104 6.06148 24.7161 5.625 22.5 5.625C18.0245 5.625 13.7322 7.4029 10.5676 10.5676C7.4029 13.7322 5.625 18.0245 5.625 22.5C5.625 26.9755 7.4029 31.2677 10.5676 34.4324C13.7322 37.5971 18.0245 39.375 22.5 39.375ZM22.065 29.325L31.44 18.075L28.56 15.675L20.4975 25.3481L16.3256 21.1744L13.6744 23.8256L19.2994 29.4506L20.7506 30.9019L22.065 29.325Z" fill="#36454F"/>
</svg>
